<?xml version="1.0" standalone="no"?>
<!DOCTYPE svg PUBLIC "-//W3C//DTD SVG 20010904//EN"
 "http://www.w3.org/TR/2001/REC-SVG-20010904/DTD/svg10.dtd">
<svg version="1.0" xmlns="http://www.w3.org/2000/svg"
 width="776.000000pt" height="776.000000pt" viewBox="0 0 776.000000 776.000000"
 preserveAspectRatio="xMidYMid meet">
<metadata>
Created by potrace 1.11, written by Peter Selinger 2001-2013
</metadata>
<g transform="translate(0.000000,776.000000) scale(0.100000,-0.100000)"
fill="#000000" stroke="none">
<path d="M4385 7740 c-72 -32 -125 -99 -140 -178 -2 -9 -4 -17 -5 -17 -1 0 -3
-16 -6 -35 -2 -19 -7 -46 -10 -60 -4 -14 -8 -36 -9 -50 -2 -24 -7 -51 -20
-110 -3 -14 -7 -38 -10 -55 -2 -16 -6 -41 -9 -55 -4 -14 -8 -38 -11 -55 -7
-47 -16 -98 -21 -125 -3 -14 -7 -34 -9 -45 -5 -30 -34 -197 -39 -220 -2 -11
-7 -40 -11 -65 -4 -25 -9 -54 -11 -65 -2 -11 -6 -33 -9 -50 -15 -87 -14 -86
-48 -80 -49 9 -87 14 -142 20 -27 3 -57 7 -65 10 -8 2 -40 6 -70 10 -51 5 -67
7 -145 20 -184 30 -179 33 -201 -109 -3 -21 -8 -48 -10 -60 -3 -11 -7 -40 -10
-63 -7 -49 5 -59 88 -69 29 -4 60 -8 68 -9 17 -3 114 -17 145 -20 11 -1 20 -3
20 -4 0 -2 21 -4 46 -6 25 -1 55 -5 65 -8 10 -4 46 -9 79 -13 33 -3 69 -8 80
-10 10 -2 37 -6 60 -10 22 -3 42 -7 43 -9 2 -2 -14 -13 -36 -24 -42 -21 -128
-77 -148 -96 -6 -5 -28 -23 -48 -39 -125 -98 -254 -262 -332 -421 -58 -119
-82 -189 -111 -325 -14 -67 -20 -291 -9 -360 3 -19 8 -53 11 -75 8 -51 51
-199 72 -245 34 -77 86 -175 97 -183 14 -10 179 -1 224 12 17 5 32 7 32 3 0
-3 5 -1 12 6 7 7 19 12 27 12 28 0 174 80 224 121 48 41 50 41 61 -11 10 -49
-120 -191 -222 -242 -62 -31 -74 -33 -165 -33 -63 0 -97 -4 -97 -11 0 -17 159
-174 211 -209 9 -5 40 -26 70 -46 43 -28 95 -59 127 -76 2 -1 -1 -25 -7 -55
-6 -29 -13 -69 -16 -88 -3 -19 -8 -42 -10 -50 -5 -18 -14 -63 -20 -110 -3 -19
-8 -46 -11 -60 -6 -24 -7 -32 -18 -90 -2 -14 -7 -41 -11 -60 -3 -19 -8 -44
-10 -55 -2 -11 -4 -20 -5 -20 -1 0 -3 -16 -5 -35 -5 -36 -12 -75 -15 -75 -1 0
-3 -11 -5 -25 -3 -25 -40 -231 -50 -280 -3 -14 -7 -36 -10 -50 -3 -14 -7 -35
-9 -46 -2 -12 -7 -37 -10 -55 -5 -32 -28 -155 -41 -224 -16 -85 -38 -202 -41
-220 -3 -19 -15 -86 -29 -165 -3 -19 -11 -55 -16 -79 -5 -24 -7 -46 -5 -49 3
-2 1 -12 -4 -22 -5 -9 -11 -32 -14 -51 -2 -19 -7 -47 -10 -64 -3 -16 -9 -46
-13 -65 -3 -19 -7 -39 -8 -45 -2 -5 -5 -26 -9 -45 -3 -19 -8 -46 -11 -60 -3
-14 -7 -38 -10 -55 -3 -16 -9 -50 -14 -75 -5 -25 -12 -63 -16 -85 -4 -22 -8
-47 -10 -55 -2 -8 -4 -17 -4 -20 -1 -7 -519 -5 -527 2 -3 4 -7 41 -8 83 -2 65
-7 81 -32 117 -50 72 -110 93 -204 73 -14 -3 -41 -8 -60 -10 -19 -2 -48 -6
-65 -9 -44 -7 -171 -18 -241 -21 -33 -1 -65 -4 -70 -6 -12 -6 -306 -2 -404 5
-140 10 -205 16 -226 20 -11 2 -47 7 -79 10 -32 4 -61 9 -66 11 -20 13 -108 6
-139 -10 -67 -35 -92 -82 -99 -190 l-6 -79 -160 -1 c-88 -1 -169 -4 -180 -8
-11 -3 -32 -8 -46 -11 -29 -5 -139 -57 -164 -78 -140 -115 -220 -247 -261
-433 -13 -59 -13 -252 0 -305 3 -14 8 -34 10 -45 16 -79 92 -228 146 -287 17
-18 30 -37 30 -42 0 -5 2 -7 5 -4 3 3 20 -9 38 -26 19 -17 56 -43 83 -56 27
-14 50 -28 52 -32 2 -5 14 -8 26 -8 13 0 26 -3 30 -7 3 -4 14 -9 24 -12 9 -3
1295 -7 2857 -8 3138 -3 2891 -8 3019 60 156 83 278 258 322 462 11 52 13 228
3 290 -23 145 -95 291 -188 383 -63 62 -132 112 -154 112 -9 0 -17 4 -19 10
-8 24 -126 42 -285 44 -90 2 -165 5 -167 7 -3 2 -6 34 -7 69 -3 86 -16 124
-55 163 -45 43 -85 55 -153 45 -98 -15 -125 -18 -176 -23 -27 -2 -50 -5 -50
-6 0 -10 -526 -31 -547 -21 -5 2 -52 5 -105 8 -54 2 -111 6 -128 8 -16 2 -58
7 -92 10 -34 4 -72 9 -85 12 -13 2 -48 7 -78 10 -30 4 -57 7 -60 7 -16 2 -70
-16 -70 -24 0 -5 -6 -9 -12 -9 -14 0 -60 -62 -66 -89 -2 -9 -5 -47 -6 -84 -1
-38 -7 -72 -13 -75 -9 -6 -139 -7 -201 -3 -11 1 -12 11 -6 44 4 23 7 52 8 65
0 12 3 22 6 22 4 0 7 6 7 13 0 19 16 113 33 192 6 28 13 66 15 85 3 19 12 69
20 110 8 41 17 86 19 100 2 14 15 86 30 160 14 74 28 149 30 165 8 44 25 136
31 165 14 69 28 147 30 166 2 11 8 47 15 79 7 32 14 68 15 79 2 12 6 31 8 42
3 12 8 39 12 60 8 54 11 71 40 224 28 146 32 167 41 220 3 19 8 46 11 60 2 14
8 45 13 70 5 25 11 57 14 73 10 48 29 152 31 169 2 24 8 28 41 34 23 3 86 17
134 29 97 25 303 113 321 138 3 5 8 8 10 6 3 -2 64 35 104 63 80 57 220 194
270 263 11 16 25 34 32 40 14 14 56 84 81 135 9 19 20 37 25 38 4 2 7 11 7 21
0 9 4 21 9 27 4 5 13 23 19 39 6 17 20 56 31 87 12 32 24 75 27 95 3 21 8 41
10 44 15 25 22 259 11 369 -7 72 -28 176 -44 220 -4 8 -7 20 -8 25 -8 33 -84
205 -94 215 -3 3 -14 21 -25 40 -26 48 -118 170 -168 221 l-40 41 63 -7 c35
-4 73 -9 84 -10 11 -1 34 -5 50 -8 17 -3 50 -8 75 -11 25 -3 67 -8 94 -11 28
-4 52 -8 55 -10 7 -3 125 -18 159 -19 12 -1 22 -3 22 -6 0 -3 10 -5 23 -6 12
0 52 -4 88 -8 74 -9 83 -3 93 54 3 19 8 46 11 60 3 14 7 39 9 55 3 17 7 48 11
70 10 59 7 61 -140 80 -27 4 -63 9 -80 12 -16 3 -41 6 -55 8 -14 2 -47 6 -75
9 -56 7 -120 16 -150 21 -11 2 -40 7 -65 10 -25 4 -46 8 -49 10 -3 3 4 42 36
215 2 14 6 39 8 55 1 17 5 37 8 45 3 8 8 33 11 55 3 22 12 76 20 120 9 44 18
96 21 115 4 19 15 82 26 140 11 58 21 116 23 130 4 26 13 76 21 120 15 81 18
98 19 130 6 116 -80 209 -209 225 -27 4 -57 8 -65 10 -8 2 -41 7 -73 10 -32 4
-68 8 -80 11 -24 4 -73 11 -132 19 -22 2 -49 7 -61 9 -12 2 -45 7 -75 11 -30
3 -65 8 -79 10 -14 3 -43 7 -65 10 -22 2 -56 7 -75 10 -19 2 -53 7 -75 10 -23
3 -52 7 -65 10 -14 3 -52 8 -85 11 -61 7 -90 11 -90 14 0 1 -18 3 -40 5 -22 1
-56 6 -75 10 -19 3 -51 8 -70 10 -19 3 -51 7 -70 10 -91 15 -175 13 -215 -5z"/>
</g>
</svg>
